<svg aria-hidden="true" style="position:absolute;width:0;height:0" xmlns="http://www.w3.org/2000/svg" overflow="hidden"><defs><symbol id="icon-send1" viewBox="0 0 32 32"><path fill="var(--color1, #fff)" d="M32 0L0 18l10.227 3.787L26 7 14.003 23.187l.009.003-.012-.003V32l5.735-6.691L27.002 28l4.999-28z"/></symbol><symbol id="icon-check" viewBox="0 0 34 32"><path fill="var(--color2, #2196f3)" d="M4.267 0h25.6a4.267 4.267 0 014.267 4.267v23.467a4.267 4.267 0 01-4.267 4.267h-25.6A4.267 4.267 0 010 27.734V4.267A4.267 4.267 0 014.267 0z"/><path fill="var(--color1, #fff)" stroke="var(--color1, #fff)" stroke-width=".427" d="M8.442 16.538l-.147-.141-.147.139-2.057 1.95.162.156 7.605 7.253.147-.141 16.171-15.426-.162-.154-2.029-1.935-.147.141-13.98 13.325-5.417-5.167z"/></symbol><symbol id="Vector1" viewBox="0 0 32 32"><path d="M27.419 20.853l-4.201-.48a3.28 3.28 0 00-2.713.941l-3.045 3.045c-4.718-2.435-8.467-6.185-10.835-10.764l-.065-.139L9.623 10.4a3.282 3.282 0 00.942-2.729l.002.016-.48-4.169A3.314 3.314 0 006.8.592H3.932C2.062.587.508 2.142.622 4.009 1.5 18.135 12.796 29.417 26.908 30.295c1.867.114 3.424-1.44 3.424-3.31v-2.862-.016a3.279 3.279 0 00-2.897-3.256l-.015-.001z"/></symbol><symbol id="Vector21" viewBox="0 0 43 32"><path d="M37.333 0h-32c-2.2 0-3.981 1.8-3.981 4l-.019 24c0 2.2 1.8 4 4 4h32c2.2 0 4-1.8 4-4V4c0-2.2-1.8-4-4-4zm-.8 8.501l-14.139 8.837a2.02 2.02 0 01-2.129-.005l.009.005-14.141-8.84A1.7 1.7 0 117.94 5.621l-.006-.004 13.4 8.381 13.4-8.381a1.7 1.7 0 111.808 2.876l-.008.004z"/></symbol><symbol id="Vector3" viewBox="0 0 32 32"><path d="M16 16a8 8 0 000-16 8 8 0 000 16zm0 4c-5.339 0-16 2.68-16 8v2c0 1.099.901 2 2 2h28c1.099 0 2-.901 2-2v-2c0-5.32-10.661-8-16-8z"/></symbol><symbol id="Vector61" viewBox="0 0 32 32"><path d="M32 3.223L28.777 0 16 12.777 3.223 0 0 3.223 12.777 16 0 28.777 3.223 32 16 19.223 28.777 32 32 28.777 19.223 16 32 3.223z"/></symbol></defs></svg>